# xmcd
#
# Track frame offsets:
# 150
# 28142
# 47352
# 62904
# 89731
# 109901
# 129419
# 154544
# 174805
# 195828
# 216772
# 240623
#
# Disc length: 3427 seconds
#
#
# Revision: 1
# Processed by: cddbd v1.5.1PL2 Copyright (c) Steve Scherf et al.
# Submitted via: FreeRIP 2.945 
#
DISCID=980d610c
DTITLE=Sun Walk and Dog Brothers - Blues To Feel Good
DYEAR=2005
DGENRE=Blues
TTITLE0=Funk On The Road
TTITLE1=Happiness
TTITLE2=To Be True
TTITLE3=Make Somebody Happy
TTITLE4=The New World Is Coming
TTITLE5=If You Want Me
TTITLE6=Love Me More
TTITLE7=Give Me Bills No More
TTITLE8=We Have A God Love
TTITLE9=Tell Me That You Love Me So
TTITLE10=I Want To Be With You
TTITLE11=We Lord
EXTD=YEAR: 2005
EXTT0=
EXTT1=
EXTT2=
EXTT3=
EXTT4=
EXTT5=
EXTT6=
EXTT7=
EXTT8=
EXTT9=
EXTT10=
EXTT11=
PLAYORDER=
